<svg xmlns="http://www.w3.org/2000/svg" width="85" height="41" viewBox="0 0 85 41" fill="none"><g id="trustpilot-logo.svg" clip-path="url(#clip0_304_854)"><path id="Shape" d="M22.3232 8.08154H30.8872V9.72822H27.5918V18.6217H25.6186V9.72822H22.3232V8.08154ZM30.3929 10.8776H32.0395V12.3595C32.0395 12.1947 32.2043 12.03 32.3691 11.7004C32.5338 11.3709 32.6986 11.3709 32.8634 11.2061C33.0449 11.0325 33.2746 10.9176 33.5224 10.8766C33.7693 10.727 34.0608 10.6687 34.3463 10.7118H34.8406V12.3585H34.1815C33.8968 12.333 33.6107 12.3902 33.3577 12.5233C33.1097 12.6465 32.8864 12.8141 32.6986 13.0176C32.4977 13.2688 32.3315 13.5459 32.2043 13.8414C32.0573 14.2066 32.0007 14.602 32.0395 14.9938V18.6167H30.3929V10.8776ZM42.5757 18.6177H40.933V17.6291C40.6925 18.037 40.3523 18.3772 39.9444 18.6177C39.535 18.8234 39.0852 18.936 38.6272 18.9472C38.2297 19.0041 37.8243 18.9583 37.4495 18.8141C37.0747 18.6698 36.7431 18.4321 36.4863 18.1234C36.0007 17.457 35.7672 16.64 35.8272 15.8176V11.0464H37.4739V15.6579C37.4666 16.1708 37.5795 16.6783 37.8034 17.1398C37.9484 17.3005 38.1264 17.428 38.3254 17.5133C38.5243 17.5986 38.7394 17.6398 38.9558 17.6341C39.2416 17.6771 39.5336 17.6184 39.7806 17.4683C39.9454 17.3035 40.2749 17.1388 40.2749 16.974C40.3755 16.8956 40.4572 16.7958 40.5142 16.6817C40.5713 16.5677 40.6021 16.4424 40.6044 16.3149C40.6044 15.9854 40.7692 15.8206 40.7692 15.4911V11.0464H42.4159V18.6217L42.5757 18.6177ZM45.3717 16.1472C45.3476 16.3423 45.3817 16.5402 45.4696 16.7161C45.5576 16.892 45.6955 17.038 45.866 17.1358C46.2158 17.3421 46.6125 17.4555 47.0184 17.4653H47.5127C47.6022 17.4764 47.693 17.4674 47.7785 17.4388C47.864 17.4103 47.9421 17.3631 48.007 17.3005C48.1718 17.3005 48.3365 17.1358 48.5013 16.971C48.5639 16.9061 48.6111 16.828 48.6396 16.7425C48.6681 16.657 48.6772 16.5662 48.6661 16.4767C48.6661 16.3119 48.5013 16.1472 48.5013 15.9824C48.3365 15.8176 48.1718 15.8176 48.007 15.6529C47.7359 15.5818 47.4608 15.5268 47.1832 15.4881C46.9056 15.4494 46.6305 15.3944 46.3593 15.3233C46.0538 15.3172 45.761 15.2 45.5355 14.9938C45.3707 14.829 45.0412 14.829 44.7117 14.6643C44.5469 14.4995 44.2174 14.3347 44.2174 14.0052C44.083 13.6939 44.0265 13.3546 44.0526 13.0166C44.0303 12.6568 44.1484 12.3024 44.3821 12.028C44.6228 11.769 44.9004 11.5469 45.206 11.3689C45.5065 11.1862 45.8444 11.0735 46.1946 11.0394C46.5241 11.0394 47.0184 10.8746 47.3469 10.8746C47.7384 10.8483 48.1309 10.9044 48.4993 11.0394C48.8494 11.0735 49.1873 11.1862 49.4879 11.3689C49.8174 11.5337 49.9822 11.8632 50.147 12.028C50.3533 12.3777 50.4668 12.7744 50.4765 13.1803H48.6741C48.6118 12.856 48.4367 12.5641 48.1798 12.3565C47.8134 12.1921 47.4253 12.0811 47.0274 12.027H46.5331C46.4436 12.0159 46.3528 12.0249 46.2673 12.0534C46.1818 12.0819 46.1037 12.1292 46.0388 12.1917C45.9138 12.209 45.7981 12.2669 45.7092 12.3565C45.5445 12.5213 45.5445 12.5213 45.5445 12.686C45.5334 12.7755 45.5424 12.8663 45.5709 12.9518C45.5994 13.0374 45.6467 13.1154 45.7092 13.1803C45.874 13.3451 46.0388 13.3451 46.2035 13.5099C46.4747 13.5809 46.7498 13.636 47.0274 13.6747C47.3569 13.6747 47.6865 13.8394 48.016 13.8394C48.3215 13.8456 48.6143 13.9627 48.8398 14.169C49.1694 14.3337 49.3341 14.3337 49.6637 14.4985C49.9932 14.6633 50.158 14.828 50.158 15.1576C50.3063 15.4646 50.3634 15.8077 50.3227 16.1462C50.313 16.5521 50.1995 16.9488 49.9932 17.2985C49.8284 17.6281 49.4989 17.7928 49.1694 18.1224C49.0922 18.2737 48.9741 18.4004 48.8284 18.4878C48.6827 18.5752 48.5154 18.6198 48.3455 18.6167C48.016 18.6167 47.5217 18.7814 47.1931 18.7814C46.7474 18.8189 46.2988 18.7628 45.876 18.6167C45.5307 18.4856 45.1994 18.32 44.8874 18.1224C44.5832 17.9276 44.3516 17.6381 44.2283 17.2985C44.0676 17.1536 43.9401 16.9755 43.8548 16.7766C43.7695 16.5776 43.7283 16.3626 43.734 16.1462L45.3717 16.1472ZM50.9828 10.8776H52.2999V8.74061H53.9466V11.0464H55.4285V12.3635H53.9436V16.975C53.9436 17.1398 53.9436 17.1398 54.1084 17.3045L54.2732 17.4693H55.4255V18.6217H54.4369C53.9426 18.6217 53.6131 18.6217 53.4483 18.4569C53.1987 18.4214 52.9674 18.3058 52.7891 18.1275C52.6109 17.9492 52.4953 17.7179 52.4597 17.4683C52.3887 17.1972 52.3336 16.9221 52.295 16.6445V12.1987H50.9828V10.8776ZM56.5819 10.8776H58.2286V12.03C58.2995 11.7967 58.4268 11.5845 58.5993 11.412C58.7717 11.2396 58.9839 11.1123 59.2172 11.0414C59.6334 10.8549 60.0793 10.7433 60.5343 10.7118C61.0982 10.7255 61.6553 10.837 62.181 11.0414C62.6263 11.2184 63.0218 11.5012 63.3334 11.8652C63.6492 12.2492 63.8745 12.6994 63.9924 13.1823C64.1371 13.7185 64.1927 14.2748 64.1572 14.829C64.184 15.3287 64.1283 15.8293 63.9924 16.3109C63.8399 16.7805 63.6178 17.2245 63.3334 17.6281C63.0463 17.95 62.7132 18.2276 62.3448 18.4519C61.8769 18.6569 61.3735 18.7689 60.8629 18.7814H60.2038C60.039 18.7814 59.7095 18.6167 59.5447 18.6167C59.38 18.4519 59.0504 18.4519 58.8857 18.2871L58.3913 17.7928V21.5805H56.7437V10.8776H56.5819ZM62.5105 14.83C62.5366 14.492 62.4801 14.1527 62.3458 13.8414C62.181 13.5119 62.181 13.1823 62.0162 13.0176C61.8515 12.8528 61.6867 12.5233 61.3572 12.3585C61.0502 12.2102 60.7071 12.153 60.3686 12.1937C60.0612 12.1622 59.7509 12.2057 59.464 12.3205C59.1772 12.4353 58.9226 12.6179 58.7219 12.8528C58.3655 13.4482 58.1935 14.1359 58.2276 14.829C58.2276 15.1586 58.2276 15.6529 58.3923 15.8176C58.5571 16.1472 58.5571 16.4767 58.8867 16.6415C59.0514 16.8062 59.2162 17.1358 59.5457 17.1358C59.7987 17.2689 60.0848 17.3261 60.3696 17.3005C60.7076 17.3266 61.0469 17.2701 61.3582 17.1358C61.6525 17.0062 61.8877 16.7711 62.0172 16.4767C62.182 16.1472 62.3468 15.9824 62.3468 15.6529C62.4163 15.3833 62.47 15.1099 62.5075 14.834L62.5105 14.83ZM65.4724 8.08154H67.119V9.72822H65.4724V8.08154ZM65.4724 10.8776H67.119V18.6177H65.4724V10.8776ZM68.6019 8.08154H70.2486V18.6217H68.6009L68.6019 8.08154ZM75.3544 18.7864C74.7906 18.7727 74.2334 18.6612 73.7077 18.4569C73.2625 18.2798 72.867 17.9971 72.5554 17.6331C72.1878 17.2595 71.9066 16.8099 71.7315 16.3159C71.5139 15.7939 71.4018 15.2339 71.4018 14.6682C71.4018 14.1026 71.5139 13.5426 71.7315 13.0206C71.9066 12.5266 72.1878 12.077 72.5554 11.7034C72.867 11.3394 73.2625 11.0567 73.7077 10.8796C74.2298 10.662 74.7898 10.5499 75.3554 10.5499C75.921 10.5499 76.481 10.662 77.0031 10.8796C77.4484 11.0567 77.8439 11.3394 78.1555 11.7034C78.523 12.077 78.8042 12.5266 78.9793 13.0206C79.1969 13.5426 79.309 14.1026 79.309 14.6682C79.309 15.2339 79.1969 15.7939 78.9793 16.3159C78.8042 16.8099 78.523 17.2595 78.1555 17.6331C77.8439 17.9971 77.4484 18.2798 77.0031 18.4569C76.4765 18.6616 75.9193 18.7731 75.3544 18.7864ZM75.3544 17.4693C75.6924 17.4954 76.0317 17.4389 76.343 17.3045C76.6374 17.175 76.8725 16.9398 77.0021 16.6455C77.1669 16.3159 77.3316 16.1512 77.3316 15.8216C77.3316 15.4921 77.4964 15.1626 77.4964 14.833C77.5225 14.495 77.466 14.1557 77.3316 13.8444C77.3255 13.5389 77.2083 13.2461 77.0021 13.0206C76.8373 12.8558 76.6726 12.5263 76.343 12.3615C75.7026 12.1419 75.0072 12.1419 74.3668 12.3615C74.0724 12.4911 73.8373 12.7262 73.7077 13.0206C73.543 13.3501 73.3782 13.5149 73.3782 13.8444C73.3782 14.1739 73.2134 14.5035 73.2134 14.833C73.1873 15.171 73.2439 15.5103 73.3782 15.8216C73.3844 16.1271 73.5015 16.42 73.7077 16.6455C73.8373 16.9398 74.0724 17.175 74.3668 17.3045C74.6943 17.3045 75.0239 17.4683 75.3534 17.4683L75.3544 17.4693ZM79.8011 10.8786H81.1183V8.74061H82.765V11.0464H84.2469V12.3635H82.765V16.975C82.765 17.1398 82.765 17.1398 82.9297 17.3045L83.0945 17.4693H84.2469V18.6217H83.2583C82.764 18.6217 82.4344 18.6217 82.2697 18.4569C82.0201 18.4214 81.7887 18.3058 81.6105 18.1275C81.4322 17.9492 81.3166 17.7179 81.2811 17.4683C81.21 17.1972 81.155 16.9221 81.1163 16.6445V12.1987H79.8001V10.8776L79.8011 10.8786Z" fill="#191919"></path><g id="Star"><path id="Path" d="M20.3466 8.08146H12.6055L10.2997 0.669922L7.82922 8.08146H0.253906L6.34531 12.5282L4.04156 19.9427L10.2997 15.3312L16.3911 19.9427L14.0854 12.5312L20.3466 8.08146Z" fill="#00B67A"></path><path id="Path_00000139974370896774244940000013599419466242447510_" d="M14.5817 14.1738L14.0874 12.5271L10.2997 15.3232L14.5817 14.1738Z" fill="#005128"></path></g><path id="Rectangle" d="M16.0646 24.5503H0.253906V40.361H16.0646V24.5503Z" fill="#00B67A"></path><path id="Rectangle_00000119823381696065812290000006309620969489227403_" d="M33.0277 24.5503H17.217V40.361H33.0277V24.5503Z" fill="#00B67A"></path><path id="Rectangle_00000111193577153650357570000000971353195221845171_" d="M50.1555 24.5503H34.3448V40.361H50.1555V24.5503Z" fill="#00B67A"></path><path id="Rectangle_00000008833768892528033700000000322006702697863864_" d="M67.1183 24.5503H51.3076V40.361H67.1183V24.5503Z" fill="#00B67A"></path><path id="Rectangle_00000134962926880305233990000003318531366453452990_" d="M84.2464 24.5503H68.4357V40.361H84.2464V24.5503Z" fill="#DCDCE6"></path><path id="Rectangle_00000044876543712720924350000008132246518786235026_" d="M68.4357 24.5503H84.2464V40.1962H68.4357V24.5503Z" fill="#00B67A"></path><path id="Shape_00000004503963772281965500000004689748023012954798_" d="M7.99396 35.0904L10.4645 34.4313L11.4531 37.5609L7.99396 35.0904ZM13.5931 31.138H9.3121L7.99396 27.1855L6.67682 31.138H2.55963L6.01775 33.6085L4.70061 37.5609L8.15873 35.0904L10.2997 33.6085L13.5951 31.138H13.5931Z" fill="white"></path><path id="Shape_00000062892359206520126170000006215398374882685355_" d="M25.1223 35.0904L27.5928 34.4313L28.5814 37.5609L25.1223 35.0904ZM30.5566 31.138H26.2756L24.9575 27.1855L23.6404 31.138H19.3584L22.8165 33.6085L21.4994 37.5609L24.9575 35.0904L27.0985 33.6085L30.5566 31.138Z" fill="white"></path><path id="Shape_00000041986034659674372480000017210300048664811149_" d="M42.2492 35.0904L44.7197 34.4313L45.7083 37.5609L42.2492 35.0904ZM47.6836 31.138H43.4026L42.0845 27.1855L40.7673 31.138H36.4854L39.9435 33.6085L38.7911 37.5609L42.2492 35.0904L44.3902 33.6085L47.6856 31.138H47.6836Z" fill="white"></path><path id="Shape_00000155124147350657945740000004241176506388462744_" d="M59.2124 35.0904L61.6829 34.4313L62.6715 37.5609L59.2124 35.0904ZM64.8115 31.138H60.5305L59.2124 27.1855L57.8952 31.138H53.6133L57.0714 33.6085L55.7543 37.5609L59.2124 35.0904L61.3534 33.6085L64.8115 31.138Z" fill="white"></path><path id="Shape_00000131362776327819300620000011855054010791946398_" d="M76.3406 35.0904L78.8111 34.4313L79.7997 37.5609L76.3406 35.0904ZM81.7749 31.138H77.4939L76.1758 27.1855L75.0234 31.138H70.7415L74.1996 33.6085L72.8824 37.5609L76.3406 35.0904L78.4815 33.6085L81.7769 31.138H81.7749Z" fill="white"></path></g><defs><clipPath id="clip0_304_854"><rect width="83.9915" height="39.69" fill="white" transform="translate(0.253906 0.669922)"></rect></clipPath></defs></svg>